<svg xmlns="http://www.w3.org/2000/svg" xmlns:xlink="http://www.w3.org/1999/xlink" zoomAndPan="magnify" preserveAspectRatio="xMidYMid meet" version="1.0" viewBox="4.19 128.11 365.81 92.25"><defs><g/><clipPath id="0cab0546d6"><path d="M 4.1875 128.105469 L 370 128.105469 L 370 220.355469 L 4.1875 220.355469 Z M 4.1875 128.105469 " clip-rule="nonzero"/></clipPath></defs><g clip-path="url(#0cab0546d6)"><path fill="#ffddce" d="M 230 152.042969 C 234.816406 152.261719 239.6875 152.421875 244.507812 152.640625 C 249.269531 152.855469 254.03125 153.128906 258.742188 153.398438 C 263.125 153.671875 267.457031 153.886719 271.839844 154.160156 C 275.738281 154.429688 279.578125 154.648438 283.476562 154.917969 C 288.457031 155.296875 293.382812 155.730469 298.363281 156.113281 C 301.933594 156.382812 305.507812 156.652344 309.078125 156.980469 C 312.757812 157.304688 316.492188 157.792969 320.175781 158.171875 C 323.421875 158.554688 326.722656 158.878906 329.972656 159.3125 C 335.328125 159.964844 340.6875 160.613281 345.9375 161.863281 C 345.992188 161.863281 346.046875 161.863281 346.046875 161.863281 C 347.5625 162.242188 353.570312 164.898438 355.03125 165.875 C 354.492188 166.09375 354.921875 167.015625 354.003906 166.960938 C 353.894531 166.960938 353.839844 167.285156 353.894531 167.449219 C 354.21875 167.882812 354.273438 168.425781 354.816406 168.804688 C 355.789062 169.566406 355.679688 170 354.492188 170.488281 C 355.03125 171.625 356.007812 172.496094 356.492188 173.632812 C 356.546875 173.796875 356.816406 173.90625 357.035156 173.960938 C 358.226562 174.5 359.253906 175.261719 360.550781 175.53125 C 361.796875 175.804688 362.878906 176.617188 363.960938 177.324219 C 364.125 177.8125 363.53125 177.648438 363.421875 177.917969 C 363.3125 178.191406 363.691406 178.355469 363.582031 178.625 C 362.933594 178.949219 362.339844 178.460938 361.6875 178.570312 C 361.6875 178.949219 361.960938 179.003906 362.175781 179.113281 C 362.609375 179.382812 363.3125 179.4375 363.152344 180.253906 C 363.152344 180.359375 363.367188 180.523438 363.476562 180.632812 C 363.636719 180.792969 363.800781 180.902344 363.960938 181.066406 C 364.449219 181.390625 364.558594 181.988281 364.449219 182.421875 C 364.339844 182.910156 363.746094 182.53125 363.3125 182.855469 C 363.960938 184.15625 365.207031 185.132812 365.585938 186.707031 C 364.882812 186.816406 364.449219 187.25 364.015625 187.738281 C 363.746094 188.0625 363.746094 188.335938 364.015625 188.660156 C 364.339844 189.09375 364.71875 189.527344 364.992188 190.015625 C 365.152344 190.398438 365.316406 190.777344 364.667969 191.046875 C 363.691406 191.480469 363.203125 192.511719 362.394531 193.164062 C 362.175781 193.328125 362.824219 194.300781 363.097656 194.355469 C 363.3125 194.355469 363.53125 194.355469 363.746094 194.355469 C 363.910156 194.355469 364.070312 194.355469 364.289062 194.464844 C 360.445312 195.820312 356.332031 195.875 352.269531 196.796875 C 352.703125 197.394531 353.460938 197.394531 354.003906 197.773438 C 353.570312 198.804688 354.871094 198.371094 354.976562 198.96875 C 354.492188 199.347656 353.839844 199.292969 353.246094 199.347656 C 351.351562 199.457031 349.511719 199.128906 347.671875 198.96875 C 345.125 198.695312 342.636719 198.371094 340.09375 198.046875 C 338.359375 197.828125 336.574219 197.558594 334.84375 197.339844 C 334.140625 197.230469 333.488281 197.230469 332.785156 197.449219 C 331.59375 197.882812 330.296875 197.773438 329.050781 197.667969 C 328.238281 197.613281 327.425781 197.558594 326.617188 197.558594 C 319.957031 197.339844 313.300781 197.285156 306.644531 197.230469 C 303.992188 197.230469 301.394531 197.558594 298.792969 197.882812 C 296.304688 198.207031 293.816406 198.535156 291.324219 198.859375 C 288.347656 199.238281 285.425781 199.671875 282.449219 200.054688 C 279.308594 200.433594 276.171875 200.867188 273.085938 201.246094 C 270.054688 201.625 266.96875 201.953125 263.9375 202.222656 C 261.503906 202.441406 259.011719 202.601562 256.578125 202.765625 C 252.570312 203.035156 248.566406 203.253906 244.558594 203.523438 C 242.503906 203.632812 240.394531 203.6875 238.335938 203.796875 C 234.007812 204.011719 229.675781 204.011719 225.347656 204.175781 C 220.203125 204.394531 215.0625 204.554688 209.917969 204.71875 C 205.589844 204.882812 201.257812 205.042969 196.929688 205.207031 C 192.597656 205.371094 188.269531 205.640625 183.992188 205.859375 C 182.152344 205.964844 180.367188 206.019531 178.527344 206.128906 C 175.007812 206.398438 171.4375 206.507812 167.917969 206.78125 C 162.9375 207.160156 158.011719 207.59375 153.035156 207.972656 C 149.460938 208.246094 145.890625 208.515625 142.316406 208.839844 C 138.039062 209.222656 133.820312 209.65625 129.542969 210.035156 C 126.347656 210.304688 123.15625 210.578125 119.960938 210.902344 C 116.011719 211.28125 112.058594 211.714844 108.109375 212.097656 C 105.292969 212.367188 102.425781 212.636719 99.609375 212.964844 C 96.363281 213.289062 93.171875 213.667969 89.976562 214.101562 C 86.835938 214.484375 83.699219 214.917969 80.613281 215.351562 C 76.988281 215.839844 73.359375 216.382812 69.734375 216.980469 C 64.105469 217.847656 58.476562 218.824219 52.847656 219.691406 C 51.546875 219.90625 50.25 219.90625 48.949219 220.015625 C 47.542969 220.125 46.082031 220.234375 44.671875 220.234375 C 40.234375 220.234375 35.796875 219.90625 31.359375 219.09375 C 29.84375 218.824219 28.273438 218.769531 26.703125 218.390625 C 26.648438 217.792969 27.027344 217.414062 27.296875 216.980469 C 27.515625 216.542969 27.839844 216.21875 28.109375 215.785156 C 28.761719 214.808594 28.652344 214.644531 27.515625 214.539062 C 26.488281 214.484375 25.457031 214.320312 24.429688 214.265625 C 23.890625 214.210938 23.726562 213.996094 23.835938 213.507812 C 23.835938 213.453125 23.835938 213.398438 23.835938 213.398438 C 24.269531 212.257812 23.835938 211.554688 22.699219 211.175781 C 22.644531 211.175781 22.589844 211.066406 22.535156 210.902344 C 23.78125 210.144531 25.296875 210.304688 26.539062 209.4375 C 26.214844 208.839844 25.621094 208.625 25.078125 208.296875 C 24.050781 207.648438 22.914062 207.214844 22.101562 206.238281 C 21.941406 206.019531 21.667969 206.019531 21.398438 205.964844 C 18.042969 205.53125 14.632812 205.042969 11.277344 204.609375 C 9.492188 204.339844 9.4375 204.175781 10.410156 202.65625 C 10.789062 202.058594 11.222656 201.519531 11.601562 200.976562 C 12.089844 200.214844 11.980469 200 11.113281 200 C 9.976562 200 8.839844 200.054688 7.757812 200 C 6.839844 200 6.730469 199.835938 6.730469 198.914062 C 6.730469 198.859375 6.730469 198.804688 6.730469 198.804688 C 7.054688 197.71875 6.785156 197.015625 5.648438 196.691406 C 5.484375 196.636719 5.378906 196.527344 5.324219 196.253906 C 6.675781 195.496094 8.355469 195.660156 9.652344 194.683594 C 9.113281 194.03125 8.355469 193.652344 7.597656 193.21875 C 6.949219 192.785156 6.242188 192.457031 5.59375 191.96875 C 4.566406 191.265625 4.296875 190.234375 4.675781 189.039062 C 4.890625 188.445312 5.054688 187.792969 4.835938 187.25 C 4.402344 186.058594 4.621094 184.753906 4.402344 183.5625 C 4.1875 182.53125 4.347656 182.421875 5.433594 182.3125 C 5.863281 182.257812 6.296875 182.152344 6.730469 182.097656 C 6.949219 182.042969 7.273438 181.988281 7.164062 181.71875 C 6.839844 180.902344 7.488281 180.957031 7.921875 180.847656 C 12.25 180.199219 16.582031 179.167969 20.964844 178.625 C 25.511719 178.027344 30.003906 177.324219 34.550781 176.671875 C 38.71875 176.074219 42.886719 175.585938 47 174.988281 C 50.140625 174.554688 53.226562 174.066406 56.363281 173.578125 C 57.824219 173.363281 59.339844 173.089844 60.804688 172.710938 C 58.3125 172.332031 55.878906 172.007812 53.386719 171.625 C 51.816406 171.410156 50.195312 171.136719 48.734375 170.597656 C 48.246094 170.433594 47.8125 170.160156 47.324219 169.890625 C 46.945312 169.671875 46.890625 169.347656 47.109375 169.023438 C 47.378906 168.589844 47.648438 168.15625 47.921875 167.667969 C 48.191406 167.234375 48.027344 167.015625 47.597656 166.960938 C 46.621094 166.796875 45.703125 166.417969 44.835938 165.929688 C 44.347656 165.660156 44.132812 165.332031 44.238281 164.792969 C 44.402344 163.976562 44.238281 163.328125 43.429688 162.839844 C 42.777344 162.457031 42.832031 162.1875 43.535156 161.917969 C 44.238281 161.644531 44.996094 161.429688 45.753906 161.210938 C 46.082031 161.101562 46.40625 161.101562 46.675781 160.777344 C 45.753906 160.179688 44.835938 159.636719 43.914062 159.042969 C 43.320312 158.605469 42.726562 158.171875 42.453125 157.46875 C 42.238281 156.871094 42.074219 156.382812 42.347656 155.730469 C 42.671875 154.972656 42.671875 154.160156 42.398438 153.34375 C 42.019531 152.3125 42.292969 151.175781 42.128906 150.144531 C 42.074219 149.710938 42.398438 149.546875 42.726562 149.4375 C 43.535156 149.222656 44.347656 149.113281 44.945312 148.300781 C 45.269531 147.867188 45.972656 147.867188 46.511719 147.757812 C 57.445312 145.53125 68.328125 143.199219 79.257812 141.085938 C 84.132812 140.109375 89.054688 139.402344 93.980469 138.644531 C 97.878906 138.046875 101.777344 137.449219 105.617188 136.90625 C 108.8125 136.472656 111.953125 136.148438 115.144531 135.769531 C 118.285156 135.390625 121.425781 134.953125 124.507812 134.574219 C 127.703125 134.195312 130.839844 133.816406 134.035156 133.4375 C 137.335938 133.054688 140.636719 132.621094 143.941406 132.242188 C 146.539062 131.917969 149.082031 131.644531 151.679688 131.375 C 155.035156 131.050781 158.390625 130.667969 161.746094 130.398438 C 164.183594 130.179688 166.566406 129.964844 169 129.855469 C 174.792969 129.53125 180.582031 129.203125 186.375 128.988281 C 192.003906 128.769531 197.632812 128.554688 203.261719 128.5 C 207.484375 128.5 211.761719 128.226562 215.980469 128.335938 C 221.558594 128.445312 227.132812 128.445312 232.707031 128.609375 C 236.332031 128.714844 239.960938 128.714844 243.585938 128.824219 C 249.324219 128.988281 255.113281 129.148438 260.851562 129.367188 C 265.183594 129.53125 269.511719 129.746094 273.84375 129.910156 C 277.414062 130.019531 281.042969 130.234375 284.613281 130.398438 C 288.890625 130.613281 293.164062 130.832031 297.441406 131.15625 C 301.773438 131.484375 306.15625 131.808594 310.484375 132.351562 C 313.410156 132.675781 316.332031 132.894531 319.253906 133.21875 C 322.773438 133.597656 326.289062 134.03125 329.808594 134.414062 C 333.003906 134.792969 336.140625 135.117188 339.335938 135.550781 C 342.582031 135.984375 345.832031 136.417969 349.078125 136.90625 C 352.597656 137.449219 356.058594 137.992188 359.578125 138.644531 C 362.554688 139.242188 365.261719 140.488281 367.914062 141.789062 C 368.128906 141.898438 368.347656 142.0625 368.5625 142.222656 C 369.429688 142.820312 369.429688 142.984375 368.347656 143.527344 C 368.671875 143.90625 368.941406 144.285156 369.265625 144.609375 C 369.429688 144.828125 369.644531 145.152344 369.484375 145.316406 C 368.941406 145.914062 369.375 146.292969 369.644531 146.726562 C 370.023438 147.269531 370.1875 147.703125 369.539062 148.136719 C 369.429688 148.191406 369.375 148.300781 369.265625 148.410156 C 368.671875 149.003906 368.671875 149.003906 369.484375 149.710938 C 367.535156 150.523438 365.476562 150.46875 363.476562 151.011719 C 363.691406 151.445312 364.289062 151.445312 364.667969 151.878906 C 363.636719 152.585938 362.445312 152.585938 361.308594 152.75 C 358.007812 153.128906 354.652344 153.238281 351.351562 153.289062 C 345.992188 153.34375 340.632812 153.5625 335.277344 153.453125 C 326.289062 153.289062 317.359375 153.398438 308.375 153.238281 C 302.476562 153.128906 296.628906 152.910156 290.730469 152.695312 C 286.5625 152.53125 282.339844 152.367188 278.171875 152.207031 C 272.707031 151.933594 267.292969 151.773438 261.828125 151.390625 C 259.554688 151.230469 257.226562 151.175781 254.953125 151.066406 C 252.789062 150.957031 250.621094 151.175781 248.457031 151.230469 C 243.695312 151.335938 238.929688 151.390625 234.167969 151.554688 C 232.707031 151.609375 231.246094 151.71875 229.785156 151.71875 C 228.917969 151.71875 228.050781 151.664062 227.1875 151.71875 C 226.375 151.773438 225.5625 151.554688 224.75 151.878906 C 224.75 151.988281 224.75 152.097656 224.75 152.207031 C 226.320312 152.042969 228.160156 152.042969 230 152.042969 Z M 230 152.042969 " fill-opacity="1" fill-rule="nonzero"/></g><path stroke-linecap="butt" transform="matrix(1.009236, 0, 0, 1.008325, 13.543422, 138.031119)" fill="none" stroke-linejoin="miter" d="M -0.000449588 0.999622 L 345.697243 0.999622 " stroke="#ffffff" stroke-width="2" stroke-opacity="1" stroke-miterlimit="4"/><path stroke-linecap="butt" transform="matrix(1.012148, 0, 0, 1.008325, 13.543422, 209.784039)" fill="none" stroke-linejoin="miter" d="M -0.000448295 1.0006 L 90.659926 1.0006 " stroke="#ffffff" stroke-width="2" stroke-opacity="1" stroke-miterlimit="4"/><path stroke-linecap="butt" transform="matrix(0.000000000000000062, 1.006171, -1.008325, 0.000000000000000062, 13.541268, 138.033272)" fill="none" stroke-linejoin="miter" d="M 0.00187296 1.001679 L 73.159781 1.001679 " stroke="#ffffff" stroke-width="2" stroke-opacity="1" stroke-miterlimit="4"/><path stroke-linecap="butt" transform="matrix(0.000000000000000062, 1.006171, -1.008325, 0.000000000000000062, 363.1242, 138.033272)" fill="none" stroke-linejoin="miter" d="M 0.00187296 0.998698 L 73.159781 0.998698 " stroke="#ffffff" stroke-width="2" stroke-opacity="1" stroke-miterlimit="4"/><path stroke-linecap="butt" transform="matrix(1.012148, 0, 0, 1.008325, 271.710279, 211.800689)" fill="none" stroke-linejoin="miter" d="M 0.000650144 0.999583 L 90.661025 0.999583 " stroke="#ffffff" stroke-width="2" stroke-opacity="1" stroke-miterlimit="4"/><g fill="#ffffff" fill-opacity="1"><g transform="translate(18.946515, 186.536515)"><g><path d="M 16.765625 -2.9375 L 1.328125 -9.5625 L 1.328125 -10.453125 L 16.765625 -16.96875 L 16.765625 -15.78125 L 3.171875 -10.046875 L 16.765625 -4.203125 Z M 16.765625 -2.9375 "/></g></g></g><g fill="#ffffff" fill-opacity="1"><g transform="translate(40.467812, 186.536515)"><g><path d="M 0.265625 3.3125 L 10.34375 -27.15625 L 11.71875 -27.15625 L 1.671875 3.3125 Z M 0.265625 3.3125 "/></g></g></g><g fill="#ffffff" fill-opacity="1"><g transform="translate(55.874462, 186.536515)"><g><path d="M 13.65625 -23.609375 C 10.132812 -23.609375 8.375 -20.203125 8.375 -13.390625 L 8.375 -10.6875 C 8.375 -7.457031 8.835938 -4.925781 9.765625 -3.09375 C 10.703125 -1.257812 12.082031 -0.34375 13.90625 -0.34375 C 16.40625 -0.34375 18.703125 -2.78125 20.796875 -7.65625 L 21.421875 -7.65625 L 21.171875 -0.03125 L 20.796875 -0.03125 C 20.660156 -0.28125 20.535156 -0.457031 20.421875 -0.5625 C 20.304688 -0.664062 20.140625 -0.71875 19.921875 -0.71875 C 19.710938 -0.71875 18.890625 -0.539062 17.453125 -0.1875 C 16.015625 0.164062 14.554688 0.34375 13.078125 0.34375 C 9.367188 0.34375 6.492188 -0.65625 4.453125 -2.65625 C 2.421875 -4.664062 1.40625 -7.679688 1.40625 -11.703125 C 1.40625 -15.722656 2.46875 -18.820312 4.59375 -21 C 6.71875 -23.1875 9.582031 -24.28125 13.1875 -24.28125 C 14.570312 -24.28125 15.929688 -24.101562 17.265625 -23.75 C 18.597656 -23.394531 19.378906 -23.21875 19.609375 -23.21875 C 19.835938 -23.21875 20.003906 -23.269531 20.109375 -23.375 C 20.222656 -23.476562 20.351562 -23.65625 20.5 -23.90625 L 20.875 -23.90625 L 21.140625 -16.5 L 20.53125 -16.5 C 19.5 -18.800781 18.441406 -20.5625 17.359375 -21.78125 C 16.285156 -23 15.050781 -23.609375 13.65625 -23.609375 Z M 13.65625 -23.609375 "/></g></g></g><g fill="#ffffff" fill-opacity="1"><g transform="translate(82.861375, 186.536515)"><g><path d="M 17.109375 -10.546875 L 17.109375 -13.078125 C 17.109375 -17.242188 16.90625 -19.875 16.5 -20.96875 C 16.039062 -22.21875 15.390625 -22.992188 14.546875 -23.296875 C 14.066406 -23.472656 13.484375 -23.5625 12.796875 -23.5625 C 12.117188 -23.5625 11.535156 -23.46875 11.046875 -23.28125 C 10.554688 -23.101562 10.148438 -22.785156 9.828125 -22.328125 C 9.515625 -21.878906 9.257812 -21.40625 9.0625 -20.90625 C 8.875 -20.40625 8.722656 -19.695312 8.609375 -18.78125 C 8.472656 -17.46875 8.40625 -15.519531 8.40625 -12.9375 L 8.40625 -10.484375 C 8.40625 -7.703125 8.507812 -5.722656 8.71875 -4.546875 C 8.9375 -3.378906 9.207031 -2.546875 9.53125 -2.046875 C 10.238281 -0.929688 11.332031 -0.375 12.8125 -0.375 C 14.601562 -0.375 15.765625 -1.128906 16.296875 -2.640625 C 16.835938 -4.160156 17.109375 -6.796875 17.109375 -10.546875 Z M 12.734375 0.34375 C 8.929688 0.34375 6.09375 -0.6875 4.21875 -2.75 C 2.34375 -4.8125 1.40625 -7.796875 1.40625 -11.703125 C 1.40625 -15.609375 2.410156 -18.679688 4.421875 -20.921875 C 6.441406 -23.160156 9.296875 -24.28125 12.984375 -24.28125 C 16.671875 -24.28125 19.453125 -23.210938 21.328125 -21.078125 C 23.210938 -18.953125 24.15625 -15.929688 24.15625 -12.015625 C 24.15625 -8.097656 23.203125 -5.054688 21.296875 -2.890625 C 19.390625 -0.734375 16.535156 0.34375 12.734375 0.34375 Z M 12.734375 0.34375 "/></g></g></g><g fill="#ffffff" fill-opacity="1"><g transform="translate(111.829574, 186.536515)"><g><path d="M 24.390625 -12.359375 C 24.390625 -7.671875 23.066406 -4.40625 20.421875 -2.5625 C 17.984375 -0.851562 14.640625 0 10.390625 0 L 0.71875 0 L 0.71875 -0.65625 L 2.96875 -0.65625 L 2.96875 -23.265625 L 0.71875 -23.265625 L 0.71875 -23.90625 L 11.265625 -23.90625 C 15.640625 -23.90625 18.921875 -23.007812 21.109375 -21.21875 C 23.296875 -19.4375 24.390625 -16.484375 24.390625 -12.359375 Z M 9.625 -0.65625 L 10.9375 -0.65625 C 13.226562 -0.65625 14.867188 -1.46875 15.859375 -3.09375 C 16.847656 -4.71875 17.34375 -7.441406 17.34375 -11.265625 L 17.34375 -13.25 C 17.34375 -18.375 16.363281 -21.460938 14.40625 -22.515625 C 13.476562 -23.015625 12.160156 -23.265625 10.453125 -23.265625 L 9.625 -23.265625 Z M 9.625 -0.65625 "/></g></g></g><g fill="#ffffff" fill-opacity="1"><g transform="translate(141.036897, 186.536515)"><g><path d="M 0.71875 -23.90625 L 18.484375 -23.90625 L 18.8125 -17.140625 L 18.203125 -17.140625 C 17.242188 -19.441406 16.238281 -21.019531 15.1875 -21.875 C 14.144531 -22.726562 12.613281 -23.15625 10.59375 -23.15625 L 9.390625 -23.15625 L 9.390625 -12.609375 L 10.546875 -12.609375 C 11.617188 -12.609375 12.519531 -13.007812 13.25 -13.8125 C 13.976562 -14.625 14.492188 -15.710938 14.796875 -17.078125 L 15.296875 -17.078125 L 15.296875 -6.96875 L 14.71875 -6.96875 C 14.3125 -8.675781 13.757812 -9.894531 13.0625 -10.625 C 12.363281 -11.351562 11.414062 -11.71875 10.21875 -11.71875 L 9.390625 -11.71875 L 9.390625 -0.75 L 10.6875 -0.75 C 12.78125 -0.75 14.5625 -1.375 16.03125 -2.625 C 17.5 -3.882812 18.507812 -5.492188 19.0625 -7.453125 L 19.75 -7.453125 L 19.46875 0 L 0.71875 0 L 0.71875 -0.75 L 2.734375 -0.75 L 2.734375 -23.15625 L 0.71875 -23.15625 Z M 0.71875 -23.90625 "/></g></g></g><g fill="#ffffff" fill-opacity="1"><g transform="translate(165.769248, 186.536515)"><g/></g></g><g fill="#ffffff" fill-opacity="1"><g transform="translate(175.334529, 186.536515)"><g><path d="M 13.328125 -0.34375 C 14.441406 -0.34375 15.148438 -0.546875 15.453125 -0.953125 C 15.765625 -1.367188 15.921875 -2.066406 15.921875 -3.046875 L 15.921875 -9.671875 L 13.734375 -9.671875 L 13.734375 -10.421875 L 23.5625 -10.421875 L 23.5625 -9.671875 L 22.234375 -9.671875 L 22.234375 -0.03125 L 21.71875 -0.03125 C 21.3125 -0.601562 20.734375 -0.890625 19.984375 -0.890625 C 19.660156 -0.890625 18.707031 -0.679688 17.125 -0.265625 C 15.539062 0.140625 14.191406 0.34375 13.078125 0.34375 C 9.367188 0.34375 6.492188 -0.65625 4.453125 -2.65625 C 2.421875 -4.664062 1.40625 -7.679688 1.40625 -11.703125 C 1.40625 -15.722656 2.46875 -18.820312 4.59375 -21 C 6.71875 -23.1875 9.582031 -24.28125 13.1875 -24.28125 C 14.570312 -24.28125 15.960938 -24.101562 17.359375 -23.75 C 18.765625 -23.394531 19.582031 -23.21875 19.8125 -23.21875 C 20.039062 -23.21875 20.210938 -23.269531 20.328125 -23.375 C 20.441406 -23.476562 20.566406 -23.65625 20.703125 -23.90625 L 21.078125 -23.90625 L 21.34375 -16.5 L 20.734375 -16.5 C 19.617188 -18.707031 18.492188 -20.441406 17.359375 -21.703125 C 16.234375 -22.972656 14.976562 -23.609375 13.59375 -23.609375 C 10.113281 -23.609375 8.375 -20.203125 8.375 -13.390625 L 8.375 -10.6875 C 8.375 -7.269531 8.800781 -4.691406 9.65625 -2.953125 C 10.507812 -1.210938 11.734375 -0.34375 13.328125 -0.34375 Z M 13.328125 -0.34375 "/></g></g></g><g fill="#ffffff" fill-opacity="1"><g transform="translate(203.448724, 186.536515)"><g><path d="M 14.75 -0.65625 L 12.265625 -8.03125 L 5.5 -8.03125 L 2.875 -0.65625 L 5.4375 -0.65625 L 5.4375 0 L 0.203125 0 L 0.203125 -0.65625 L 1.8125 -0.65625 L 10.515625 -24.109375 L 13.328125 -24.109375 L 21.921875 -0.65625 L 23.5 -0.65625 L 23.5 0 L 12.328125 0 L 12.328125 -0.65625 Z M 9.015625 -17.734375 L 5.8125 -8.78125 L 11.984375 -8.78125 Z M 9.015625 -17.734375 "/></g></g></g><g fill="#ffffff" fill-opacity="1"><g transform="translate(230.572273, 186.536515)"><g><path d="M 11.203125 -12.09375 L 9.390625 -12.09375 L 9.390625 -0.65625 L 11.609375 -0.65625 L 11.609375 0 L 0.515625 0 L 0.515625 -0.65625 L 2.734375 -0.65625 L 2.734375 -23.265625 L 0.515625 -23.265625 L 0.515625 -23.90625 L 10.828125 -23.90625 C 13.785156 -23.90625 15.882812 -23.75 17.125 -23.4375 C 18.363281 -23.132812 19.238281 -22.769531 19.75 -22.34375 C 20.832031 -21.445312 21.375 -20.03125 21.375 -18.09375 C 21.375 -16.164062 20.894531 -14.785156 19.9375 -13.953125 C 18.988281 -13.117188 17.535156 -12.625 15.578125 -12.46875 L 15.578125 -12.359375 C 17.421875 -12.109375 18.707031 -11.5625 19.4375 -10.71875 C 20.164062 -9.882812 20.53125 -8.472656 20.53125 -6.484375 L 20.53125 -4.671875 C 20.53125 -3.492188 20.59375 -2.695312 20.71875 -2.28125 C 20.84375 -1.875 21.109375 -1.671875 21.515625 -1.671875 C 21.929688 -1.671875 22.253906 -1.859375 22.484375 -2.234375 C 22.722656 -2.609375 22.945312 -3.398438 23.15625 -4.609375 L 23.734375 -4.546875 C 23.484375 -2.609375 23.046875 -1.304688 22.421875 -0.640625 C 21.796875 0.015625 20.546875 0.34375 18.671875 0.34375 C 16.804688 0.34375 15.484375 -0.09375 14.703125 -0.96875 C 13.921875 -1.84375 13.53125 -3.488281 13.53125 -5.90625 L 13.53125 -8.40625 C 13.53125 -9.675781 13.363281 -10.609375 13.03125 -11.203125 C 12.695312 -11.796875 12.085938 -12.09375 11.203125 -12.09375 Z M 9.390625 -23.265625 L 9.390625 -12.734375 L 10.484375 -12.734375 C 11.785156 -12.734375 12.75 -13.128906 13.375 -13.921875 C 14 -14.722656 14.3125 -16.023438 14.3125 -17.828125 L 14.3125 -18.8125 C 14.3125 -20.613281 14.007812 -21.804688 13.40625 -22.390625 C 12.800781 -22.972656 11.835938 -23.265625 10.515625 -23.265625 Z M 9.390625 -23.265625 "/></g></g></g><g fill="#ffffff" fill-opacity="1"><g transform="translate(258.447332, 186.536515)"><g><path d="M 24.390625 -12.359375 C 24.390625 -7.671875 23.066406 -4.40625 20.421875 -2.5625 C 17.984375 -0.851562 14.640625 0 10.390625 0 L 0.71875 0 L 0.71875 -0.65625 L 2.96875 -0.65625 L 2.96875 -23.265625 L 0.71875 -23.265625 L 0.71875 -23.90625 L 11.265625 -23.90625 C 15.640625 -23.90625 18.921875 -23.007812 21.109375 -21.21875 C 23.296875 -19.4375 24.390625 -16.484375 24.390625 -12.359375 Z M 9.625 -0.65625 L 10.9375 -0.65625 C 13.226562 -0.65625 14.867188 -1.46875 15.859375 -3.09375 C 16.847656 -4.71875 17.34375 -7.441406 17.34375 -11.265625 L 17.34375 -13.25 C 17.34375 -18.375 16.363281 -21.460938 14.40625 -22.515625 C 13.476562 -23.015625 12.160156 -23.265625 10.453125 -23.265625 L 9.625 -23.265625 Z M 9.625 -0.65625 "/></g></g></g><g fill="#ffffff" fill-opacity="1"><g transform="translate(287.654644, 186.536515)"><g><path d="M 0.71875 -23.90625 L 18.484375 -23.90625 L 18.8125 -17.140625 L 18.203125 -17.140625 C 17.242188 -19.441406 16.238281 -21.019531 15.1875 -21.875 C 14.144531 -22.726562 12.613281 -23.15625 10.59375 -23.15625 L 9.390625 -23.15625 L 9.390625 -12.609375 L 10.546875 -12.609375 C 11.617188 -12.609375 12.519531 -13.007812 13.25 -13.8125 C 13.976562 -14.625 14.492188 -15.710938 14.796875 -17.078125 L 15.296875 -17.078125 L 15.296875 -6.96875 L 14.71875 -6.96875 C 14.3125 -8.675781 13.757812 -9.894531 13.0625 -10.625 C 12.363281 -11.351562 11.414062 -11.71875 10.21875 -11.71875 L 9.390625 -11.71875 L 9.390625 -0.75 L 10.6875 -0.75 C 12.78125 -0.75 14.5625 -1.375 16.03125 -2.625 C 17.5 -3.882812 18.507812 -5.492188 19.0625 -7.453125 L 19.75 -7.453125 L 19.46875 0 L 0.71875 0 L 0.71875 -0.75 L 2.734375 -0.75 L 2.734375 -23.15625 L 0.71875 -23.15625 Z M 0.71875 -23.90625 "/></g></g></g><g fill="#ffffff" fill-opacity="1"><g transform="translate(312.386995, 186.536515)"><g><path d="M 20.15625 -23.265625 L 20.15625 0 L 15.375 0 L 3.65625 -22.09375 L 3.65625 -0.65625 L 5.53125 -0.65625 L 5.53125 0 L 0.859375 0 L 0.859375 -0.65625 L 2.734375 -0.65625 L 2.734375 -23.265625 L 0.859375 -23.265625 L 0.859375 -23.90625 L 10.28125 -23.90625 L 19.234375 -6.765625 L 19.234375 -23.265625 L 17.34375 -23.265625 L 17.34375 -23.90625 L 22.03125 -23.90625 L 22.03125 -23.265625 Z M 20.15625 -23.265625 "/></g></g></g><g fill="#ffffff" fill-opacity="1"><g transform="translate(338.690712, 186.536515)"><g><path d="M 1.328125 -16.96875 L 16.765625 -10.34375 L 16.765625 -9.46875 L 1.328125 -2.9375 L 1.328125 -4.140625 L 14.921875 -9.9375 L 1.328125 -15.71875 Z M 1.328125 -16.96875 "/></g></g></g><g fill="#a6a6a6" fill-opacity="1"><g transform="translate(109.289148, 216.067339)"><g><path d="M 9.921875 -8.246094 L 8.121094 -2.007812 L 6.351562 -8.246094 L 4.824219 -8.246094 L 3.066406 -2.035156 L 1.277344 -8.246094 L -0.152344 -8.246094 L 2.28125 0 L 3.78125 0 L 5.578125 -6.597656 L 7.40625 0 L 8.917969 0 L 11.324219 -8.246094 Z M 9.921875 -8.246094 "/></g></g></g><g fill="#a6a6a6" fill-opacity="1"><g transform="translate(123.859019, 216.067339)"><g><path d="M 5.703125 -7.023438 L 5.703125 -8.246094 L 0.976562 -8.246094 L 0.976562 0 L 5.703125 0 L 5.703125 -1.222656 L 2.324219 -1.222656 L 2.324219 -3.503906 L 5.25 -3.503906 L 5.25 -4.742188 L 2.324219 -4.742188 L 2.324219 -7.023438 Z M 5.703125 -7.023438 "/></g></g></g><g fill="#a6a6a6" fill-opacity="1"><g transform="translate(133.661031, 216.067339)"><g><path d="M 5.429688 -4.179688 C 6.101562 -4.507812 6.527344 -5.125 6.527344 -6.007812 C 6.527344 -7.367188 5.46875 -8.246094 4.152344 -8.246094 L 0.90625 -8.246094 L 0.90625 0 L 4.453125 0 C 5.757812 0 6.804688 -0.851562 6.804688 -2.210938 C 6.804688 -3.214844 6.238281 -3.875 5.429688 -4.179688 Z M 5.179688 -5.867188 C 5.179688 -5.222656 4.644531 -4.714844 4 -4.714844 L 2.238281 -4.714844 L 2.238281 -6.996094 L 4 -6.996094 C 4.644531 -6.996094 5.179688 -6.527344 5.179688 -5.867188 Z M 4.261719 -1.25 L 2.238281 -1.25 L 2.238281 -3.53125 L 4.261719 -3.53125 C 4.921875 -3.53125 5.457031 -3.023438 5.457031 -2.378906 C 5.457031 -1.730469 4.921875 -1.25 4.261719 -1.25 Z M 4.261719 -1.25 "/></g></g></g><g fill="#a6a6a6" fill-opacity="1"><g transform="translate(144.383626, 216.067339)"><g/></g></g><g fill="#a6a6a6" fill-opacity="1"><g transform="translate(151.080342, 216.067339)"><g><path d="M 0.90625 0 L 3.382812 0 C 5.664062 0 7.503906 -1.839844 7.503906 -4.125 C 7.503906 -6.40625 5.664062 -8.246094 3.382812 -8.246094 L 0.90625 -8.246094 Z M 2.238281 -1.25 L 2.238281 -6.996094 L 3.382812 -6.996094 C 4.949219 -6.996094 6.171875 -5.773438 6.171875 -4.125 C 6.171875 -2.472656 4.949219 -1.25 3.382812 -1.25 Z M 2.238281 -1.25 "/></g></g></g><g fill="#a6a6a6" fill-opacity="1"><g transform="translate(162.572395, 216.067339)"><g><path d="M 5.703125 -7.023438 L 5.703125 -8.246094 L 0.976562 -8.246094 L 0.976562 0 L 5.703125 0 L 5.703125 -1.222656 L 2.324219 -1.222656 L 2.324219 -3.503906 L 5.25 -3.503906 L 5.25 -4.742188 L 2.324219 -4.742188 L 2.324219 -7.023438 Z M 5.703125 -7.023438 "/></g></g></g><g fill="#a6a6a6" fill-opacity="1"><g transform="translate(172.374408, 216.067339)"><g><path d="M 5.867188 -8.246094 L 3.640625 -1.703125 L 1.402344 -8.246094 L -0.0976562 -8.246094 L 2.886719 0 L 4.382812 0 L 7.367188 -8.246094 Z M 5.867188 -8.246094 "/></g></g></g><g fill="#a6a6a6" fill-opacity="1"><g transform="translate(183.042052, 216.067339)"><g><path d="M 5.703125 -7.023438 L 5.703125 -8.246094 L 0.976562 -8.246094 L 0.976562 0 L 5.703125 0 L 5.703125 -1.222656 L 2.324219 -1.222656 L 2.324219 -3.503906 L 5.25 -3.503906 L 5.25 -4.742188 L 2.324219 -4.742188 L 2.324219 -7.023438 Z M 5.703125 -7.023438 "/></g></g></g><g fill="#a6a6a6" fill-opacity="1"><g transform="translate(192.844065, 216.067339)"><g><path d="M 2.253906 -1.25 L 2.253906 -8.246094 L 0.90625 -8.246094 L 0.90625 0 L 5.152344 0 L 5.152344 -1.25 Z M 2.253906 -1.25 "/></g></g></g><g fill="#a6a6a6" fill-opacity="1"><g transform="translate(201.464406, 216.067339)"><g><path d="M 4.824219 0.109375 C 7.160156 0.109375 9.058594 -1.785156 9.058594 -4.125 C 9.058594 -6.460938 7.160156 -8.355469 4.824219 -8.355469 C 2.488281 -8.355469 0.589844 -6.460938 0.589844 -4.125 C 0.589844 -1.785156 2.488281 0.109375 4.824219 0.109375 Z M 4.824219 -1.222656 C 3.203125 -1.222656 1.925781 -2.488281 1.925781 -4.125 C 1.925781 -5.757812 3.203125 -7.023438 4.824219 -7.023438 C 6.460938 -7.023438 7.722656 -5.757812 7.722656 -4.125 C 7.722656 -2.488281 6.460938 -1.222656 4.824219 -1.222656 Z M 4.824219 -1.222656 "/></g></g></g><g fill="#a6a6a6" fill-opacity="1"><g transform="translate(214.509108, 216.067339)"><g><path d="M 4.136719 -8.246094 L 0.90625 -8.246094 L 0.90625 0 L 2.253906 0 L 2.253906 -3.503906 L 4.136719 -3.503906 C 5.46875 -3.503906 6.515625 -4.523438 6.515625 -5.855469 C 6.515625 -7.175781 5.46875 -8.246094 4.136719 -8.246094 Z M 3.945312 -4.671875 L 2.253906 -4.671875 L 2.253906 -7.023438 L 3.945312 -7.023438 C 4.660156 -7.023438 5.195312 -6.554688 5.195312 -5.839844 C 5.195312 -5.113281 4.660156 -4.671875 3.945312 -4.671875 Z M 3.945312 -4.671875 "/></g></g></g><g fill="#a6a6a6" fill-opacity="1"><g transform="translate(224.558439, 216.067339)"><g><path d="M 8.136719 -8.246094 L 5.238281 -1.785156 L 2.351562 -8.246094 L 0.90625 -8.246094 L 0.90625 0 L 2.253906 0 L 2.253906 -5.675781 L 4.78125 0 L 5.675781 0 L 8.234375 -5.691406 L 8.234375 0 L 9.566406 0 L 9.566406 -8.246094 Z M 8.136719 -8.246094 "/></g></g></g><g fill="#a6a6a6" fill-opacity="1"><g transform="translate(238.427556, 216.067339)"><g><path d="M 5.703125 -7.023438 L 5.703125 -8.246094 L 0.976562 -8.246094 L 0.976562 0 L 5.703125 0 L 5.703125 -1.222656 L 2.324219 -1.222656 L 2.324219 -3.503906 L 5.25 -3.503906 L 5.25 -4.742188 L 2.324219 -4.742188 L 2.324219 -7.023438 Z M 5.703125 -7.023438 "/></g></g></g><g fill="#a6a6a6" fill-opacity="1"><g transform="translate(248.229569, 216.067339)"><g><path d="M 6.832031 -8.246094 L 6.832031 -2.128906 L 2.253906 -8.246094 L 0.90625 -8.246094 L 0.90625 0 L 2.253906 0 L 2.253906 -6.128906 L 6.816406 0 L 8.164062 0 L 8.164062 -8.246094 Z M 6.832031 -8.246094 "/></g></g></g><g fill="#a6a6a6" fill-opacity="1"><g transform="translate(260.697185, 216.067339)"><g><path d="M 5.730469 -8.246094 L 0.0273438 -8.246094 L 0.0273438 -6.996094 L 2.210938 -6.996094 L 2.210938 0 L 3.546875 0 L 3.546875 -6.996094 L 5.730469 -6.996094 Z M 5.730469 -8.246094 "/></g></g></g></svg>